<svg width="34" height="23" viewBox="0 0 34 23" fill="none" xmlns="http://www.w3.org/2000/svg">
<g clip-path="url(#clip0_517_638)">
<path d="M7.7273 22.8868V11.0996L3.65327 7.75526L0 5.89941V20.8066C0 21.9576 1.03926 22.8868 2.31824 22.8868H7.7273V22.8868Z" fill="#4285F4"/>
<path d="M26.2727 22.8868H31.6818C32.9646 22.8868 34 21.9541 34 20.8066V5.89954L29.8621 8.02519L26.2727 11.0996V22.8868V22.8868Z" fill="#34A853"/>
<path d="M7.72721 11.0996L7.17285 6.49401L7.72721 2.086L16.9999 8.32627L26.2726 2.086L26.8927 6.25603L26.2726 11.0996L16.9999 17.3399L7.72721 11.0996Z" fill="#EA4335"/>
<path d="M26.2727 2.08599V11.0996L34 5.89947V3.126C34 0.553693 30.7275 -0.912707 28.4365 0.629962L26.2727 2.08599Z" fill="#FBBC04"/>
<path d="M0 5.89946L3.55393 8.29122L7.7273 11.0996V2.08599L5.56352 0.629956C3.26852 -0.912832 0 0.553686 0 3.12587V5.89934V5.89946Z" fill="#C5221F"/>
</g>
<defs>
<clipPath id="clip0_517_638">
<rect width="34" height="23" fill="white"/>
</clipPath>
</defs>
</svg>
